<mxfile host="Electron" agent="Mozilla/5.0 (X11; Linux x86_64) AppleWebKit/537.36 (KHTML, like Gecko) draw.io/26.2.2 Chrome/134.0.6998.178 Electron/35.1.2 Safari/537.36" version="26.2.2">
  <diagram name="Page-1" id="CTcxdbO-PVF1NvXZ5JHa">
    <mxGraphModel dx="1182" dy="641" grid="1" gridSize="10" guides="1" tooltips="1" connect="1" arrows="1" fold="1" page="1" pageScale="1" pageWidth="827" pageHeight="1169" math="0" shadow="0">
      <root>
        <mxCell id="0" />
        <mxCell id="1" parent="0" />
        <mxCell id="dFtXVKQ9E31ajtSz6Uui-1" value="A" style="rounded=0;whiteSpace=wrap;html=1;" parent="1" vertex="1">
          <mxGeometry x="150" y="60" width="100" height="60" as="geometry" />
        </mxCell>
        <mxCell id="dFtXVKQ9E31ajtSz6Uui-2" value="B" style="rounded=0;whiteSpace=wrap;html=1;" parent="1" vertex="1">
          <mxGeometry x="590" y="60" width="100" height="60" as="geometry" />
        </mxCell>
        <mxCell id="dFtXVKQ9E31ajtSz6Uui-3" value="" style="endArrow=classic;html=1;rounded=0;" parent="1" source="dFtXVKQ9E31ajtSz6Uui-1" edge="1">
          <mxGeometry width="50" height="50" relative="1" as="geometry">
            <mxPoint x="390" y="480" as="sourcePoint" />
            <mxPoint x="200" y="840" as="targetPoint" />
          </mxGeometry>
        </mxCell>
        <mxCell id="dFtXVKQ9E31ajtSz6Uui-4" value="" style="endArrow=classic;html=1;rounded=0;" parent="1" source="dFtXVKQ9E31ajtSz6Uui-2" edge="1">
          <mxGeometry width="50" height="50" relative="1" as="geometry">
            <mxPoint x="620" y="130" as="sourcePoint" />
            <mxPoint x="640" y="840" as="targetPoint" />
          </mxGeometry>
        </mxCell>
        <mxCell id="dFtXVKQ9E31ajtSz6Uui-8" value="" style="endArrow=classic;html=1;rounded=0;" parent="1" edge="1">
          <mxGeometry width="50" height="50" relative="1" as="geometry">
            <mxPoint x="200" y="160" as="sourcePoint" />
            <mxPoint x="640" y="240" as="targetPoint" />
          </mxGeometry>
        </mxCell>
        <mxCell id="dFtXVKQ9E31ajtSz6Uui-9" value="C0" style="edgeLabel;html=1;align=center;verticalAlign=middle;resizable=0;points=[];" parent="dFtXVKQ9E31ajtSz6Uui-8" vertex="1" connectable="0">
          <mxGeometry x="-0.2225" relative="1" as="geometry">
            <mxPoint x="9" y="-11" as="offset" />
          </mxGeometry>
        </mxCell>
        <mxCell id="dFtXVKQ9E31ajtSz6Uui-13" value="" style="endArrow=classic;html=1;rounded=0;" parent="1" edge="1">
          <mxGeometry width="50" height="50" relative="1" as="geometry">
            <mxPoint x="640" y="240" as="sourcePoint" />
            <mxPoint x="200" y="280" as="targetPoint" />
          </mxGeometry>
        </mxCell>
        <mxCell id="dFtXVKQ9E31ajtSz6Uui-14" value="ACK0" style="edgeLabel;html=1;align=center;verticalAlign=middle;resizable=0;points=[];" parent="dFtXVKQ9E31ajtSz6Uui-13" vertex="1" connectable="0">
          <mxGeometry x="0.15" relative="1" as="geometry">
            <mxPoint x="13" y="-13" as="offset" />
          </mxGeometry>
        </mxCell>
        <mxCell id="dFtXVKQ9E31ajtSz6Uui-15" value="" style="endArrow=classic;html=1;rounded=0;" parent="1" edge="1">
          <mxGeometry width="50" height="50" relative="1" as="geometry">
            <mxPoint x="200" y="280" as="sourcePoint" />
            <mxPoint x="640" y="360" as="targetPoint" />
          </mxGeometry>
        </mxCell>
        <mxCell id="dFtXVKQ9E31ajtSz6Uui-16" value="A1" style="edgeLabel;html=1;align=center;verticalAlign=middle;resizable=0;points=[];" parent="dFtXVKQ9E31ajtSz6Uui-15" vertex="1" connectable="0">
          <mxGeometry x="-0.2225" relative="1" as="geometry">
            <mxPoint x="9" y="-11" as="offset" />
          </mxGeometry>
        </mxCell>
        <mxCell id="dFtXVKQ9E31ajtSz6Uui-17" value="" style="endArrow=classic;html=1;rounded=0;" parent="1" edge="1">
          <mxGeometry width="50" height="50" relative="1" as="geometry">
            <mxPoint x="640" y="360" as="sourcePoint" />
            <mxPoint x="200" y="440" as="targetPoint" />
          </mxGeometry>
        </mxCell>
        <mxCell id="dFtXVKQ9E31ajtSz6Uui-18" value="ACK1" style="edgeLabel;html=1;align=center;verticalAlign=middle;resizable=0;points=[];" parent="dFtXVKQ9E31ajtSz6Uui-17" vertex="1" connectable="0">
          <mxGeometry x="0.15" relative="1" as="geometry">
            <mxPoint x="27" y="-16" as="offset" />
          </mxGeometry>
        </mxCell>
        <mxCell id="dFtXVKQ9E31ajtSz6Uui-49" value="" style="curved=1;endArrow=classic;html=1;rounded=0;" parent="1" edge="1">
          <mxGeometry width="50" height="50" relative="1" as="geometry">
            <mxPoint x="200" y="160" as="sourcePoint" />
            <mxPoint x="200" y="240" as="targetPoint" />
            <Array as="points">
              <mxPoint x="70" y="160" />
              <mxPoint x="80" y="220" />
            </Array>
          </mxGeometry>
        </mxCell>
        <mxCell id="dFtXVKQ9E31ajtSz6Uui-50" value="Timeout" style="edgeLabel;html=1;align=center;verticalAlign=middle;resizable=0;points=[];" parent="dFtXVKQ9E31ajtSz6Uui-49" vertex="1" connectable="0">
          <mxGeometry x="0.3716" y="-7" relative="1" as="geometry">
            <mxPoint x="4" y="-41" as="offset" />
          </mxGeometry>
        </mxCell>
        <mxCell id="dFtXVKQ9E31ajtSz6Uui-51" value="" style="endArrow=classic;html=1;rounded=0;" parent="1" edge="1">
          <mxGeometry width="50" height="50" relative="1" as="geometry">
            <mxPoint x="200" y="239.99" as="sourcePoint" />
            <mxPoint x="640" y="640" as="targetPoint" />
          </mxGeometry>
        </mxCell>
        <mxCell id="dFtXVKQ9E31ajtSz6Uui-52" value="C0" style="edgeLabel;html=1;align=center;verticalAlign=middle;resizable=0;points=[];" parent="dFtXVKQ9E31ajtSz6Uui-51" vertex="1" connectable="0">
          <mxGeometry x="-0.2225" relative="1" as="geometry">
            <mxPoint x="89" y="64" as="offset" />
          </mxGeometry>
        </mxCell>
        <mxCell id="dFtXVKQ9E31ajtSz6Uui-53" value="" style="endArrow=classic;html=1;rounded=0;" parent="1" edge="1">
          <mxGeometry width="50" height="50" relative="1" as="geometry">
            <mxPoint x="200" y="440" as="sourcePoint" />
            <mxPoint x="640" y="520" as="targetPoint" />
          </mxGeometry>
        </mxCell>
        <mxCell id="dFtXVKQ9E31ajtSz6Uui-54" value="T0" style="edgeLabel;html=1;align=center;verticalAlign=middle;resizable=0;points=[];" parent="dFtXVKQ9E31ajtSz6Uui-53" vertex="1" connectable="0">
          <mxGeometry x="-0.2225" relative="1" as="geometry">
            <mxPoint x="9" y="-11" as="offset" />
          </mxGeometry>
        </mxCell>
        <mxCell id="dFtXVKQ9E31ajtSz6Uui-55" value="" style="endArrow=classic;html=1;rounded=0;" parent="1" edge="1">
          <mxGeometry width="50" height="50" relative="1" as="geometry">
            <mxPoint x="640" y="520" as="sourcePoint" />
            <mxPoint x="200" y="600" as="targetPoint" />
          </mxGeometry>
        </mxCell>
        <mxCell id="dFtXVKQ9E31ajtSz6Uui-56" value="ACK0" style="edgeLabel;html=1;align=center;verticalAlign=middle;resizable=0;points=[];" parent="dFtXVKQ9E31ajtSz6Uui-55" vertex="1" connectable="0">
          <mxGeometry x="0.15" relative="1" as="geometry">
            <mxPoint x="27" y="-16" as="offset" />
          </mxGeometry>
        </mxCell>
        <mxCell id="dFtXVKQ9E31ajtSz6Uui-57" value="" style="endArrow=classic;html=1;rounded=0;" parent="1" edge="1">
          <mxGeometry width="50" height="50" relative="1" as="geometry">
            <mxPoint x="640" y="640" as="sourcePoint" />
            <mxPoint x="200" y="720" as="targetPoint" />
          </mxGeometry>
        </mxCell>
        <mxCell id="dFtXVKQ9E31ajtSz6Uui-58" value="ACK0" style="edgeLabel;html=1;align=center;verticalAlign=middle;resizable=0;points=[];" parent="dFtXVKQ9E31ajtSz6Uui-57" vertex="1" connectable="0">
          <mxGeometry x="0.15" relative="1" as="geometry">
            <mxPoint x="27" y="-16" as="offset" />
          </mxGeometry>
        </mxCell>
        <mxCell id="G-KpdvegIJa9qY7SZXIk-1" value="" style="curved=1;endArrow=classic;html=1;rounded=0;" parent="1" edge="1">
          <mxGeometry width="50" height="50" relative="1" as="geometry">
            <mxPoint x="640" y="640" as="sourcePoint" />
            <mxPoint x="640" y="730" as="targetPoint" />
            <Array as="points">
              <mxPoint x="790" y="670" />
              <mxPoint x="770" y="720" />
            </Array>
          </mxGeometry>
        </mxCell>
        <mxCell id="G-KpdvegIJa9qY7SZXIk-2" value="Duplicate Sequence&lt;div&gt;Number&lt;br&gt;Error detected&lt;/div&gt;" style="edgeLabel;html=1;align=center;verticalAlign=middle;resizable=0;points=[];" parent="G-KpdvegIJa9qY7SZXIk-1" vertex="1" connectable="0">
          <mxGeometry x="0.3716" y="-7" relative="1" as="geometry">
            <mxPoint x="-45" y="-25" as="offset" />
          </mxGeometry>
        </mxCell>
        <mxCell id="G-KpdvegIJa9qY7SZXIk-3" value="" style="curved=1;endArrow=classic;html=1;rounded=0;" parent="1" edge="1">
          <mxGeometry width="50" height="50" relative="1" as="geometry">
            <mxPoint x="210" y="720" as="sourcePoint" />
            <mxPoint x="200" y="800" as="targetPoint" />
            <Array as="points">
              <mxPoint x="80" y="720" />
              <mxPoint x="90" y="780" />
            </Array>
          </mxGeometry>
        </mxCell>
        <mxCell id="Lc54KdrPv0vS5SZq9qAS-1" value="Duplicate Sequence&lt;div&gt;Number&lt;br&gt;Error detected&lt;/div&gt;" style="edgeLabel;html=1;align=center;verticalAlign=middle;resizable=0;points=[];" vertex="1" connectable="0" parent="1">
          <mxGeometry x="149.9992648835472" y="749.9978385725857" as="geometry" />
        </mxCell>
      </root>
    </mxGraphModel>
  </diagram>
</mxfile>
